<?xml version="1.0" encoding="UTF-8"?>
<svg id="Layer_1" xmlns="http://www.w3.org/2000/svg" version="1.1" xmlns:xlink="http://www.w3.org/1999/xlink" viewBox="0 0 2000 2000">
  <!-- Generator: Adobe Illustrator 30.1.0, SVG Export Plug-In . SVG Version: 2.1.1 Build 136)  -->
  <defs>
    <style>
      .st0 {
        fill: #e3c440;
      }

      .st1 {
        fill: #302e2b;
      }

      .st2 {
        fill: #ddc65d;
      }

      .st3 {
        fill: #797979;
      }

      .st4 {
        fill: #9a9a9a;
      }

      .st5 {
        fill: #c9c8c9;
      }

      .st6 {
        fill: url(#linear-gradient1);
      }

      .st7 {
        fill: #b8a14d;
      }

      .st8 {
        fill: #1d1c1d;
      }

      .st9, .st10 {
        fill: none;
      }

      .st11 {
        fill: #505456;
      }

      .st12 {
        fill: #b0afae;
      }

      .st13 {
        fill: #313232;
      }

      .st14 {
        fill: #757779;
      }

      .st15 {
        fill: #b2b2b2;
      }

      .st16 {
        fill: #856813;
      }

      .st17 {
        fill: #333435;
      }

      .st18 {
        fill: #a8a7a7;
      }

      .st19 {
        fill: #171717;
      }

      .st20 {
        fill: #f9e572;
      }

      .st21 {
        fill: #f2d752;
      }

      .st22 {
        fill: #404040;
      }

      .st23 {
        fill: #bdbdbd;
      }

      .st24 {
        fill: #343536;
      }

      .st25 {
        fill: #cfaa21;
      }

      .st26 {
        fill: #2c2b2b;
      }

      .st27 {
        fill: #242020;
      }

      .st28 {
        fill: #535555;
      }

      .st29 {
        fill: #1d1c1c;
      }

      .st30 {
        fill: #47484a;
      }

      .st31 {
        fill: #474746;
      }

      .st32 {
        fill: #313233;
      }

      .st33 {
        fill: #f6e170;
      }

      .st34 {
        fill: #b69f4b;
      }

      .st35 {
        fill: #cbcaca;
      }

      .st36 {
        fill: #58595b;
      }

      .st37 {
        fill: #5f6161;
      }

      .st38 {
        fill: #565759;
      }

      .st39 {
        fill: #55595a;
      }

      .st40 {
        fill: #3c3e3f;
      }

      .st41 {
        fill: #6b6c6c;
      }

      .st42 {
        fill: #95771a;
      }

      .st43 {
        fill: #969695;
      }

      .st44 {
        fill: #b69c3a;
      }

      .st45 {
        fill: #868787;
      }

      .st46 {
        fill: #aeaeae;
      }

      .st47 {
        fill: #2a2a29;
      }

      .st48 {
        fill: #4e4f51;
      }

      .st49 {
        fill: #8f8f8e;
      }

      .st10 {
        stroke: #000;
        stroke-linecap: round;
        stroke-linejoin: round;
        stroke-width: .7px;
      }

      .st50 {
        fill: #efedee;
      }

      .st51 {
        fill: #242424;
      }

      .st52 {
        fill: #484a4a;
      }

      .st53 {
        fill: url(#linear-gradient);
      }

      .st54 {
        fill: #faeb93;
      }

      .st55 {
        fill: #393838;
      }

      .st56 {
        fill: #dac879;
      }

      .st57 {
        fill: #4c4e4f;
      }
    </style>
    <linearGradient id="linear-gradient" x1="944.5" y1="684.4" x2="877.1" y2="1902.2" gradientUnits="userSpaceOnUse">
      <stop offset="0" stop-color="#c6a838"/>
      <stop offset=".7" stop-color="#f0d22d"/>
    </linearGradient>
    <linearGradient id="linear-gradient1" x1="982" y1="686.4" x2="914.6" y2="1904.3" gradientUnits="userSpaceOnUse">
      <stop offset="0" stop-color="#c6a838"/>
      <stop offset=".7" stop-color="#f0d22d"/>
    </linearGradient>
  </defs>
  <g>
    <g id="ARC">
      <path class="st10" d="M1634.9,1158.8c-81.5,76.6-129.9,182.1-134.8,293.8"/>
    </g>
    <g id="ARC1" data-name="ARC">
      <path class="st10" d="M261.2,1333.3c0,368.2,298.5,666.7,666.7,666.7"/>
    </g>
    <g id="ARC2" data-name="ARC">
      <path class="st10" d="M815.8,1137.5c-108.1,101.5-113.6,271.4-12.1,379.5s271.4,113.6,379.5,12.1c35.6-33.4,61.4-75.8,74.7-122.8"/>
    </g>
    <g id="ARC3" data-name="ARC">
      <path class="st10" d="M927.9,2000c306.4,0,558.6-241.2,572.2-547.3"/>
    </g>
    <g id="ARC4" data-name="ARC">
      <path class="st10" d="M575.2,893.2c-187.9,64.6-314.1,241.4-314.1,440.1"/>
    </g>
    <g id="LINE">
      <line class="st10" x1="1045.6" y1="921.8" x2="815.8" y2="1137.5"/>
    </g>
    <g id="LINE1" data-name="LINE">
      <line class="st10" x1="825.9" y1="807" x2="575.2" y2="893.2"/>
    </g>
    <g id="ARC5" data-name="ARC">
      <path class="st10" d="M802.6,626.8c0,4.7,3.8,8.6,8.6,8.6"/>
    </g>
    <g id="ARC6" data-name="ARC">
      <path class="st10" d="M802.6,626.8c0,4.7,3.8,8.6,8.6,8.6"/>
    </g>
    <g id="ARC7" data-name="ARC">
      <path class="st10" d="M825.9,807c37.4-12.9,57.3-53.6,44.4-91-4.3-12.5-12-23.5-22.1-32"/>
    </g>
    <g id="ARC8" data-name="ARC">
      <path class="st10" d="M1045.6,921.8c50.4-47.3,79.1-113.4,79.1-182.6"/>
    </g>
    <g id="LINE2" data-name="LINE">
      <line class="st10" x1="811.2" y1="635.4" x2="1203.5" y2="635.4"/>
    </g>
    <g id="LINE3" data-name="LINE">
      <line class="st10" x1="838.4" y1="663.4" x2="838.4" y2="635.4"/>
    </g>
    <g id="ARC9" data-name="ARC">
      <path class="st10" d="M838.4,663.4c0,8,3.6,15.6,9.8,20.7"/>
    </g>
    <g id="LINE4" data-name="LINE">
      <line class="st10" x1="1160.6" y1="663.4" x2="1160.6" y2="635.4"/>
    </g>
    <g id="ARC10" data-name="ARC">
      <path class="st10" d="M1150.8,684.1c-16.5,13.6-26,33.8-26,55.2"/>
    </g>
    <g id="ARC11" data-name="ARC">
      <path class="st10" d="M1150.8,684.1c6.2-5.1,9.8-12.7,9.8-20.7"/>
    </g>
    <g id="LINE5" data-name="LINE">
      <line class="st10" x1="1169.5" y1="407" x2="829.4" y2="407"/>
    </g>
    <g id="LINE6" data-name="LINE">
      <line class="st10" x1="1165.2" y1="402.7" x2="833.7" y2="402.7"/>
    </g>
    <g id="LINE7" data-name="LINE">
      <line class="st10" x1="829.4" y1="456.4" x2="829.4" y2="0"/>
    </g>
    <g id="LINE8" data-name="LINE">
      <line class="st10" x1="833.7" y1="402.7" x2="829.4" y2="407"/>
    </g>
    <g id="LINE9" data-name="LINE">
      <line class="st10" x1="1169.5" y1="456.4" x2="1169.5" y2="0"/>
    </g>
    <g id="LINE10" data-name="LINE">
      <line class="st10" x1="1165.2" y1="402.7" x2="1169.5" y2="407"/>
    </g>
    <g id="ARC12" data-name="ARC">
      <path class="st10" d="M1471.1,583.5c-54.1-76.2-140.5-122.9-233.9-126.4"/>
    </g>
    <g id="ARC13" data-name="ARC">
      <path class="st10" d="M1471.1,583.5c-54.1-76.2-140.5-122.9-233.9-126.4"/>
    </g>
    <g id="ARC14" data-name="ARC">
      <path class="st10" d="M1441.9,604.2c-18.8-26.5-42.3-49.3-69.4-67.3"/>
    </g>
    <g id="ARC15" data-name="ARC">
      <path class="st10" d="M1622,1003.1c4.2-15.1,5.1-30.9,2.6-46.3"/>
    </g>
    <g id="ARC16" data-name="ARC">
      <path class="st10" d="M1411.5,965.7c-2.4,30.1,8,59.8,28.6,81.8"/>
    </g>
    <g id="ARC17" data-name="ARC">
      <path class="st10" d="M1622,1003.1c16-57.1-17.3-116.4-74.5-132.4-57.1-16-116.4,17.3-132.4,74.5-10.1,36.1-.7,74.9,24.9,102.3"/>
    </g>
    <g id="ARC18" data-name="ARC">
      <path class="st10" d="M1505.3,1161.6c9,30.3,40.9,47.6,71.2,38.6,28.2-8.4,45.5-36.8,40-65.7"/>
    </g>
    <g id="ARC19" data-name="ARC">
      <path class="st10" d="M1505.3,1161.6c9,30.3,40.9,47.6,71.2,38.6,28.2-8.4,45.5-36.8,40-65.7"/>
    </g>
    <g id="ARC20" data-name="ARC">
      <path class="st10" d="M1431,1148.1c16.3,58.7,68,100.6,128.7,104.5"/>
    </g>
    <g id="ARC21" data-name="ARC">
      <path class="st10" d="M1485.1,1111.2c-110.9,65.5-192.3,171.2-227.3,295.1"/>
    </g>
    <g id="ARC22" data-name="ARC">
      <path class="st10" d="M1505.3,1161.6c-12.6-42.6-35-81.6-65.3-114.1"/>
    </g>
    <g id="ARC23" data-name="ARC">
      <path class="st10" d="M1505.3,1161.6c-12.6-42.6-35-81.6-65.3-114.1"/>
    </g>
    <g id="ARC24" data-name="ARC">
      <path class="st10" d="M1622,1003.1c-12,42.8-13.8,87.7-5.5,131.3"/>
    </g>
    <g id="ARC25" data-name="ARC">
      <path class="st10" d="M1622,1003.1c-12,42.8-13.8,87.7-5.5,131.3"/>
    </g>
    <g id="ARC26" data-name="ARC">
      <path class="st10" d="M1634.9,1158.8c21.9-20.6,22.9-55,2.4-76.9-6.9-7.4-15.8-12.7-25.6-15.3"/>
    </g>
    <g id="ARC27" data-name="ARC">
      <path class="st10" d="M1611.7,1066.8s0,0,0,0"/>
    </g>
    <g id="ARC28" data-name="ARC">
      <path class="st10" d="M1624.5,956.8c-22-134.5-74.5-262.2-153.4-373.3"/>
    </g>
    <g id="ARC29" data-name="ARC">
      <path class="st10" d="M1539,782.3c-25.2-63-57.8-122.8-97.1-178.2"/>
    </g>
    <g id="ARC30" data-name="ARC">
      <path class="st10" d="M1624.5,956.8c-22-134.5-74.5-262.2-153.4-373.3"/>
    </g>
    <g id="CIRCLE">
      <circle class="st10" cx="1518.5" cy="974.2" r="23.6"/>
    </g>
    <g id="ARC31" data-name="ARC">
      <path class="st10" d="M1508.3,831.4c19.7-1.4,34.6-18.5,33.2-38.3-.3-3.7-1.1-7.3-2.5-10.7"/>
    </g>
    <g id="ARC32" data-name="ARC">
      <path class="st10" d="M1398.5,890.6c-27.7-84-73.5-160.9-133.9-225.3"/>
    </g>
    <g id="ARC33" data-name="ARC">
      <path class="st10" d="M1398.5,890.6c-27.7-84-73.5-160.9-133.9-225.3"/>
    </g>
    <g id="ARC34" data-name="ARC">
      <path class="st10" d="M1411.9,825.4c-29.5-68-70.5-130.5-121.2-184.6"/>
    </g>
    <g id="ARC35" data-name="ARC">
      <path class="st10" d="M1411.5,965.7c1.5-19-.8-38.1-6.8-56.3"/>
    </g>
    <g id="ARC36" data-name="ARC">
      <path class="st10" d="M1411.5,965.7c1.5-19-.8-38.1-6.8-56.3"/>
    </g>
    <g id="LINE11" data-name="LINE">
      <line class="st10" x1="1398.5" y1="890.6" x2="1404.7" y2="909.4"/>
    </g>
    <g id="LINE12" data-name="LINE">
      <line class="st10" x1="1398.5" y1="890.6" x2="1404.7" y2="909.4"/>
    </g>
    <g id="ARC37" data-name="ARC">
      <path class="st10" d="M1411.9,825.4c7.9,18.1,28.9,26.5,47.1,18.6.2,0,.4-.2.5-.2"/>
    </g>
    <g id="ARC38" data-name="ARC">
      <path class="st10" d="M1508.3,831.4c-16.9,1.2-33.4,5.4-48.8,12.4"/>
    </g>
    <g id="ARC39" data-name="ARC">
      <path class="st10" d="M1264.5,665.3c-17.9-19-42.8-29.9-68.9-29.9"/>
    </g>
    <g id="ARC40" data-name="ARC">
      <path class="st10" d="M1264.5,665.3c-17.9-19-42.8-29.9-68.9-29.9"/>
    </g>
    <g id="ARC41" data-name="ARC">
      <path class="st10" d="M1290.6,640.8c-10.8-10.7-22.6-20.3-35.2-28.8"/>
    </g>
    <g id="ARC42" data-name="ARC">
      <path class="st10" d="M1237.2,457.1c-11.2-.4-22.5-.6-33.7-.6"/>
    </g>
    <g id="LINE13" data-name="LINE">
      <line class="st10" x1="861.3" y1="0" x2="829.4" y2="0"/>
    </g>
    <g id="ARC43" data-name="ARC">
      <path class="st10" d="M1253.3,599.1c17.9-21.2,23.6-50.1,15-76.4"/>
    </g>
    <g id="ARC44" data-name="ARC">
      <path class="st10" d="M1370.8,535.4c-29.8-26.2-65.1-45.4-103.2-56.3"/>
    </g>
    <g id="ARC45" data-name="ARC">
      <path class="st10" d="M1267.6,479.1c-4.6-1.3-9.3,1.3-10.6,5.9s-.4,4.5.7,6.4"/>
    </g>
    <g id="ARC46" data-name="ARC">
      <path class="st10" d="M1251.3,528.2c-5.2-34.8-30.7-63.1-64.8-71.8"/>
    </g>
    <g id="ARC47" data-name="ARC">
      <path class="st10" d="M1162.6,511.8c.5-14.3-10.7-26.3-25-26.8s-2.1,0-3.2,0"/>
    </g>
    <g id="ARC48" data-name="ARC">
      <path class="st10" d="M784.7,486.9c0,4.7,3.8,8.6,8.6,8.6"/>
    </g>
    <g id="LINE14" data-name="LINE">
      <line class="st10" x1="1146.5" y1="537.7" x2="1098" y2="537.7"/>
    </g>
    <g id="LINE15" data-name="LINE">
      <line class="st10" x1="1146.5" y1="557" x2="1098" y2="557"/>
    </g>
    <g id="CIRCLE1" data-name="CIRCLE">
      <circle class="st10" cx="1082.1" cy="547.3" r="18.6"/>
    </g>
    <g id="LINE16" data-name="LINE">
      <line class="st10" x1="794" y1="495.5" x2="1152.6" y2="495.5"/>
    </g>
    <g id="LINE17" data-name="LINE">
      <line class="st10" x1="811.2" y1="635.4" x2="1055.4" y2="635.4"/>
    </g>
    <g id="LINE18" data-name="LINE">
      <line class="st10" x1="802.6" y1="504.1" x2="802.6" y2="626.8"/>
    </g>
    <g id="ARC49" data-name="ARC">
      <path class="st10" d="M802.6,626.8c0,4.7,3.8,8.6,8.6,8.6"/>
    </g>
    <g id="LINE19" data-name="LINE">
      <line class="st10" x1="793.3" y1="495.5" x2="794" y2="495.5"/>
    </g>
    <g id="ARC50" data-name="ARC">
      <path class="st10" d="M802.6,504.1c0-4.7-3.8-8.6-8.6-8.6"/>
    </g>
    <g id="ARC51" data-name="ARC">
      <path class="st10" d="M1227.6,598.5c22.5-15.7,32.1-44.2,23.7-70.3"/>
    </g>
    <g id="ARC52" data-name="ARC">
      <path class="st10" d="M1253.3,599.1c-3.1,3.6-2.6,9,1,12.1.3.3.7.6,1.1.8"/>
    </g>
    <g id="CIRCLE2" data-name="CIRCLE">
      <circle class="st10" cx="1192" cy="547.3" r="17.5"/>
    </g>
    <g id="CIRCLE3" data-name="CIRCLE">
      <circle class="st10" cx="1192" cy="547.3" r="46.5"/>
    </g>
    <g id="CIRCLE4" data-name="CIRCLE">
      <circle class="st10" cx="1192" cy="547.3" r="31.1"/>
    </g>
    <g id="LINE20" data-name="LINE">
      <line class="st10" x1="1227.6" y1="598.5" x2="1218.6" y2="585.5"/>
    </g>
    <g id="ARC53" data-name="ARC">
      <path class="st10" d="M1269,525.5c-1.8-11.9-5.6-23.5-11.3-34.2"/>
    </g>
    <g id="LINE21" data-name="LINE">
      <line class="st10" x1="1134.4" y1="485.1" x2="784.7" y2="485.1"/>
    </g>
    <g id="ARC54" data-name="ARC">
      <path class="st10" d="M785.3,456.4c-.3.9-.5,1.9-.5,2.9"/>
    </g>
    <g id="LINE22" data-name="LINE">
      <line class="st10" x1="784.7" y1="459.4" x2="784.7" y2="486.9"/>
    </g>
    <g id="LWPOLYLINE">
      <path class="st10" d="M1237.2,457.1c-11.2-.4-22.5-.6-33.7-.6h-418.3"/>
    </g>
    <g id="LINE23" data-name="LINE">
      <line class="st10" x1="1137.7" y1="0" x2="1169.5" y2="0"/>
    </g>
    <g id="LINE24" data-name="LINE">
      <line class="st10" x1="861.3" y1="0" x2="1137.7" y2="0"/>
    </g>
    <g id="ARC55" data-name="ARC">
      <path class="st10" d="M586.9,927c-173.5,59.6-289.9,222.8-289.9,406.2"/>
    </g>
    <g id="ARC56" data-name="ARC">
      <path class="st10" d="M297,1333.3c0,348.5,282.5,630.9,630.9,630.9"/>
    </g>
    <g id="ARC57" data-name="ARC">
      <path class="st10" d="M927.9,1964.2c287.3,0,523.7-226.1,536.4-513.1"/>
    </g>
    <g id="ARC58" data-name="ARC">
      <path class="st10" d="M1522.7,1245.2c-35.2,63.1-55.2,133.6-58.4,205.8"/>
    </g>
    <g id="ARC59" data-name="ARC">
      <path class="st10" d="M1445.5,1182.4c-73.8,60.4-127.3,141.9-153.3,233.7"/>
    </g>
    <g id="ARC60" data-name="ARC">
      <path class="st10" d="M791.3,1111.4c-122.6,115-128.7,307.5-13.7,430.1,115,122.6,307.5,128.7,430.1,13.7,40.3-37.8,69.6-85.9,84.6-139.1"/>
    </g>
    <g id="LINE25" data-name="LINE">
      <line class="st10" x1="1021.1" y1="895.7" x2="791.3" y2="1111.4"/>
    </g>
    <g id="ARC61" data-name="ARC">
      <path class="st10" d="M1021.1,895.7c43.2-40.6,67.8-97.2,67.8-156.5"/>
    </g>
    <g id="ARC62" data-name="ARC">
      <path class="st10" d="M1117.6,666.3c-18.4,19.8-28.6,45.9-28.6,72.9"/>
    </g>
    <g id="LINE26" data-name="LINE">
      <line class="st10" x1="1124.8" y1="648" x2="1124.8" y2="635.4"/>
    </g>
    <g id="LINE27" data-name="LINE">
      <line class="st10" x1="874.2" y1="648" x2="874.2" y2="635.4"/>
    </g>
    <g id="ARC63" data-name="ARC">
      <path class="st10" d="M837.5,840.9c56.1-19.3,85.9-80.4,66.6-136.5-4.9-14.1-12.6-27.1-22.8-38.1"/>
    </g>
    <g id="LINE28" data-name="LINE">
      <line class="st10" x1="837.5" y1="840.9" x2="586.9" y2="927"/>
    </g>
    <g id="LINE29" data-name="LINE">
      <line class="st10" x1="910" y1="634.9" x2="910" y2="635.4"/>
    </g>
    <g id="ARC64" data-name="ARC">
      <path class="st10" d="M849.2,874.7c74.8-25.7,114.6-107.2,88.9-182-5.1-14.9-12.7-28.9-22.4-41.3"/>
    </g>
    <g id="ARC65" data-name="ARC">
      <path class="st10" d="M598.5,960.9c-159,54.7-265.7,204.2-265.7,372.4"/>
    </g>
    <g id="LINE30" data-name="LINE">
      <line class="st10" x1="849.2" y1="874.7" x2="598.5" y2="960.9"/>
    </g>
    <g id="ARC66" data-name="ARC">
      <path class="st10" d="M332.8,1333.3c0,328.7,266.4,595.1,595.1,595.1"/>
    </g>
    <g id="ARC67" data-name="ARC">
      <path class="st10" d="M927.9,1928.4c268.1,0,488.8-211,500.7-478.9"/>
    </g>
    <g id="ARC68" data-name="ARC">
      <path class="st10" d="M1490.5,1229.5c-37.3,67.6-58.5,142.9-61.9,220"/>
    </g>
    <g id="ARC69" data-name="ARC">
      <path class="st10" d="M874.2,648c0,6.8,2.6,13.3,7.2,18.3"/>
    </g>
    <g id="ARC70" data-name="ARC">
      <path class="st10" d="M910,634.9c0,6,2,11.8,5.7,16.5"/>
    </g>
    <g id="ARC71" data-name="ARC">
      <path class="st10" d="M1117.6,666.3c4.6-5,7.2-11.5,7.2-18.3"/>
    </g>
  </g>
  <path class="st9" d="M1410.9,938.7c-8.6,20.5-2.3,48.8,3.8,68,11,35,35.1,35.2,64.9,104.5-4.1,2.3-7.4,7.9-11.6,9.9-14.4,6.9-25.3,19.6-38,28.4-51.4,35.7-92.6,84.2-124.4,139.7-23.7,41.3-38.5,82.5-53.6,127.7-23.6,70.4-75.6,127.6-142.7,159.1-83.3,39.1-179.3,32.5-258.7-19.3-69.2-45.1-116.5-124.9-119.4-212.9-2.7-78.8,25.8-156.7,84.3-210.8l229-211.8c46.3-42.8,72.1-101.9,76.8-162.8,1.7-22.5.6-42,19.2-63.1,6.2-7,11.3-13.1,15.7-19.8,12.5-18.7,6.3-13.6,9.7-40.4,56.1-2.2,53.3-8.2,94.8,28,71.6,62.2,131.8,184.8,150.2,275.5Z"/>
  <path class="st19" d="M1566.1,1237c-.3-1.9-.1-4.3-1.2-5.6-1.8-2.2-5.6,2.1-7.1,1.5l-26.7-10.6-17.7-13.9c4.4-11.2-6.4-22.4-14-27.7.4-5.7-3.9-10.4-6.8-14.4-9.8-13.5-12.7-29.3-18.4-45.2-.5-1.3-2.8,1.1-2,2.9s-1.6,1.5-2.3.3c-.5-.9-1.4-2-1.8-3,4.2-2,7.5-7.6,11.6-9.9,8,18.5,20.3,36.3,27.9,57.5,9.3,26,38.3,38.9,62.5,34.2,27.3-5.3,46.5-30,45.8-58-.7-28.7-3.9-56.3.8-83,30.5,14.2,47.3,57.6,24.4,85.1l-74.9,90.1Z"/>
  <path class="st1" d="M1513.4,1208.4l17.7,13.9,26.7,10.6c1.4.6,5.2-3.7,7.1-1.5,1.1,1.3,1,3.8,1.2,5.6-2.6,3.2-4.7,8.9-8.7,10.9-13.5,2-27,.7-39.5-4.4-8.8-3.6-19-5.9-25.7-12.9,6.1-8.2,12.7-17.4,21.2-22.2Z"/>
  <path class="st31" d="M1513.4,1208.4c-8.6,4.8-15.2,14-21.2,22.2-.6.4-1.3.5-2,.4-16.8-13.8-31.4-30-42.2-48.9-6.2-10.7-13.7-21-18-32.6,12.7-8.8,23.6-21.5,38-28.4.4,1,1.3,2.2,1.8,3,.7,1.2,2.8.7,2.3-.3-.8-1.8,1.5-4.2,2-2.9,5.7,16,8.6,31.7,18.4,45.2,2.9,4,7.2,8.7,6.8,14.4,7.7,5.3,18.4,16.5,14,27.7Z"/>
  <path class="st21" d="M1557.3,1248c-16.6,31.1-31.6,62.3-41,97.1-11,41.1-17.3,81.1-19.8,124.6-5.2,92.1-32.8,179.7-82.3,258.5-52.6,83.7-124.9,152.8-210.8,200.3-225.5,124.7-501.2,80.8-698.2-80.1-91.4-74.6-166.5-169.9-203.9-280.3,1.6-7.5,21.6-7.4,24.5-6.3,15.9,6,39.2,12.5,51.7-2.1,25.2,61.2,59.7,118.3,102.4,168.9-.2-1.6-28.8,20.8-22.7,21.2,20.1,28.6,47.5,47.9,71.9,68.8,72.9,62.5,163.5,105.8,257.9,128,91.9,21.6,185.3,21,277-2.5,98.1-25.1,184.5-77.6,253.9-150.6,85.6-90,137.5-206.2,144.1-330.5,2.2-41.1,8.3-79,17.5-118.1,8.5-36,22.3-69,38.2-101.4,12.5,5.1,26,6.4,39.5,4.4Z"/>
  <path class="st33" d="M886.4,674.9c7,8.9,14.3,17.6,18.9,29.4l37.9-.4c1.3,13.4,1.1,26.5-.3,39.9-3.9-1.6-2,7.7-4.1,7.8l-33.3.3c-6.5,49.9-25.4,71.5-74.1,88.8l-271.8,96.4c-69.8,24.8-126.6,72.7-172.1,130.2-46.9,59.1-76.3,127.9-86.7,202.5-.9,6.2,34,7.4,36.4,6.7-12.2,90.6,5.7,198.9,40.4,283.3-12.6,14.6-35.9,8.1-51.7,2.1-2.8-1.1-22.8-1.2-24.5,6.3l-18-52.9c10.6-6.1,22.5-8.7,35.2-12.2-9.6-34.3-15.9-66.7-20.2-101.7-4.1,1.2-1.8,5.3-2.4,9.5-12.4-1.3-23.2,0-34.2,1.7-9.2-71.5-4.8-144.7,16.1-214.3,43.3-143.7,154.9-256.2,296.7-305.7l258.2-90c33.9-11.8,37.8-45.7,36.5-76.9s-8.6-34.3-20.6-47c6.5-8.8,24.4,4.4,27.1-10,6.5-3.1,8.2,3.6,10.4,6.3Z"/>
  <path class="st21" d="M283.5,1515.2c-11.3-33.4-17-67.9-21.5-102.8,10.9-1.7,21.7-3,34.2-1.7.5-4.2-1.7-8.2,2.4-9.5,4.3,35,10.5,67.4,20.2,101.7-12.7,3.5-24.6,6.2-35.2,12.2Z"/>
  <path class="st34" d="M853.3,633.6c9.6.4,19.1.1,28.8-.1s10.3-.8,15.6-.6l19.6.9c-3.5,4.6-.2,10.1,0,15.2s3,12.2,6.4,17.8c-6,3.4-14.2-.1-19.9,4.3s-12.1,1.8-17.5,3.8c-2.2-2.8-3.9-9.4-10.4-6.3-2.7,14.4-20.6,1.2-27.1,10-26.6-28.1-9-35.7-17.2-44.6,7.2.8,14.4-.7,21.5-.4Z"/>
  <path class="st53" d="M1098.8,633.7l63.7.3c-1.7,1.6,1.3,3.1.5,5.8l-33.9,1c-.8,12-5.1,19.3-7.8,27.6-42.6,36.4-27.4,48.4-34.6,94.3-8.7,56.2-36.8,105.7-79.8,145.1l-200.2,183.4c-43,39.4-75.6,86-94.6,140.4-42.9,122.8-4.2,257.8,97.1,339.2,101,81.2,243.2,88.5,352.2,17.8,65.2-42.3,110.3-105.5,132.8-180.6,13.3-44.3,32.3-83.6,56-121.9,23.7-38.3,52.7-70.7,87.5-98.8,3.5-2.9,6.1-6,10.2-5.1,10.8,18.8,25.3,35.1,42.2,48.9-43.8,70.6-58.2,148.6-63.8,234.1-6.3,97.5-41.9,187.9-101.4,265.4-83.4,108.5-204.1,177.3-339.8,192.5-62.4,7-122.8,3.1-183.6-9-92.1-18.4-176.7-57.7-250.7-115-25.2-19.5-50-45.9-70.7-70.4-42.7-50.6-77.2-107.7-102.4-168.9-34.7-84.4-52.7-192.7-40.4-283.3,12.2-90.6,55-172.8,123-235.3,38.5-35.3,80.9-61.5,130.4-78.9l260.6-91.2c36.2-12.7,64.2-36.8,80-70.1,8.7-18.4,9.8-38,11.8-57.2,1.4-13.4,1.6-26.5.3-39.9-1.1-11.4-6.2-20.9-12.7-30.7.3-1.7-.7-3.6,0-4.8,2.4-4.9,27.4,2.1,16,1.7,21.2.7,42.9,2,64-.1,11.4-1.1,22-2.4,33.9-.2.9-5.4,1.3-8.6.9-11.9,26.6-4.2,50.6,18.9,46.4-10.6l-38.5-.4c15.2-7.8,45.9,6.8,37.1-12.8l8.6-.2Z"/>
  <path class="st25" d="M1517.8,1243.5c-15.9,32.4-29.7,65.3-38.2,101.4-9.2,39.1-15.3,77.1-17.5,118.1-6.6,124.4-58.5,240.5-144.1,330.5-69.4,73-155.8,125.5-253.9,150.6-91.7,23.5-185.2,24.1-277,2.5-94.4-22.2-185-65.5-257.9-128,10.2,1.6,10.4-8,21.5-19.6,74.1,57.3,158.6,96.7,250.7,115,60.8,12.1,121.3,16,183.6,9,135.7-15.2,256.4-84,339.8-192.5,59.6-77.4,95.1-167.9,101.4-265.4,5.6-85.5,20-163.5,63.8-234.1.7.1,1.4,0,2-.4,6.8,7.1,16.9,9.3,25.7,12.9Z"/>
  <path class="st0" d="M550.7,1799c-11.1,11.7-11.3,21.2-21.5,19.6-24.4-20.9-51.8-40.2-71.9-68.8-6.1-.4,22.6-22.9,22.7-21.2,20.7,24.5,45.5,50.9,70.7,70.4Z"/>
  <path class="st54" d="M942.9,743.7c-2,19.2-3.1,38.8-11.8,57.2-15.8,33.4-43.8,57.5-80,70.1l-260.6,91.2c-49.5,17.3-92,43.5-130.4,78.9-68,62.5-110.8,144.7-123,235.3-2.4.7-37.2-.6-36.4-6.7,10.4-74.6,39.8-143.4,86.7-202.5,45.6-57.5,102.3-105.5,172.1-130.2l271.8-96.4c48.7-17.3,67.6-38.8,74.1-88.8l33.3-.3c2.1,0,.2-9.3,4.1-7.8Z"/>
  <path class="st56" d="M923.8,666.8c1.5,2.5,4.5,5,6.8,6.4,6.4,9.8,11.6,19.2,12.7,30.7l-37.9.4c-4.6-11.7-11.8-20.4-18.9-29.4,5.4-2,12.3.2,17.5-3.8s13.8-1,19.9-4.3Z"/>
  <path class="st7" d="M1165.9,635.2c-3.3,26.8,2.8,21.6-9.7,40.4-1.8-5.2-7.5-3.8-12.6-3.2l-5.9.8c-3.9.5-2.1-3.3-4.1-4.9-2.5-2.1-9.6-1.3-12.3.1,2.7-8.4,7-15.6,7.8-27.6l33.9-1c.9-2.7-2.1-4.1-.5-5.8,1.4-.5,5.6-1.5,3.4,1.3Z"/>
  <path class="st6" d="M923.6,633.4c11.1.5,22.2.6,33.3.5l83.2-.4,6.1.6c-1.3,4-1.3,8.5-.1,12.9,3.3-.7,5.6.6,7.1-.1-1.3,2.8-4.5,2.1-5.9,2.3-2.7.3-2.5,4.9-2.7,6.5-2.4,1.5-5.1-1.8-7.5-1.9l-104.2-1c-3.6-7.3-10.9-2-15.6-3.8-.2-5.1-3.6-10.5,0-15.2,2,0,4.2-.5,6.3-.4Z"/>
  <path class="st44" d="M1044.6,655.6c.3.7.5,1.5.6,2.2.5,3.3,0,6.4-.9,11.9-11.8-2.2-22.5-.9-33.9.2-21,2.1-42.7.8-64,.1,11.4.4-13.6-6.5-16-1.7s.4,3.1,0,4.8c-2.3-1.4-5.3-3.9-6.8-6.4-3.4-5.6-6.1-11.2-6.4-17.8,4.7,1.8,12-3.5,15.6,3.8l104.2,1c2.3,0,5.1,3.3,7.5,1.9Z"/>
  <path class="st20" d="M1429.9,1149.6c4.3,11.6,11.8,21.9,18,32.6-4.1-.9-6.7,2.3-10.2,5.1-34.9,28.1-63.8,60.5-87.5,98.8-23.7,38.3-42.7,77.6-56,121.9-22.5,75.1-67.6,138.4-132.8,180.6-109,70.7-251.2,63.4-352.2-17.8-101.3-81.4-139.9-216.4-97.1-339.2,19-54.4,51.5-101,94.6-140.4l200.2-183.4c43-39.4,71.1-88.9,79.8-145.1l19.2,2.9c2.6.4,8.3.8,11.1-.8s.4-5.2,4.2-6.4c-4.7,61-30.5,120-76.8,162.8l-229,211.8c-58.5,54.1-87,132-84.3,210.8,3,88,50.2,167.7,119.4,212.9,79.4,51.8,175.4,58.3,258.7,19.3,67-31.5,119.1-88.7,142.7-159.1,15.1-45.2,29.9-86.3,53.6-127.7,31.8-55.5,72.9-104,124.4-139.7Z"/>
  <path class="st2" d="M1156.2,675.6c-4.4,6.6-9.6,12.8-15.7,19.8-18.6,21.1-17.4,40.7-19.2,63.1-3.8,1.2-2.2,5.2-4.2,6.4s-8.5,1.2-11.1.8l-19.2-2.9c7.1-46-8-57.9,34.6-94.3,2.7-1.4,9.8-2.2,12.3-.1,2,1.7.2,5.4,4.1,4.9l5.9-.8c5.1-.7,10.8-2,12.6,3.2Z"/>
  <path class="st42" d="M1045.2,657.9c-.1-.8-.3-1.5-.6-2.2.2-1.7,0-6.2,2.7-6.5s4.5.5,5.9-2.3l38.5.4c4.2,29.5-19.8,6.5-46.4,10.6Z"/>
  <path class="st16" d="M1090.3,634c8.8,19.7-21.9,5.1-37.1,12.8-1.5.8-3.8-.6-7.1.1-1.2-4.4-1.2-8.9.1-12.9h44.1Z"/>
  <path class="st47" d="M1172.9,405.5c0,5.1-.6,10.4-.2,15.5-7.7-2-16.3-2.8-25.2-1.1l-.7,32.4-51.9-.7c-.8.9-.9,2.1-.3,2.3h-111.8c-19-.2-38.7,1.7-56.8-2.2,0-.7,0-1.5-.1-2.2,9.8-1.6,20.8,3.8,29.5-2.4,1.4-1.2,1.5,1.4,3.5,2.4,11-1,22.7,2.8,31.2-2.4,13.2,4.7,28.3,1.4,44.1,2.4,1-11.4-1.5-21.1,1.4-30.8l100.5-.3c3.2,0,8.1-.5,9.6-2.9,1.8-2.8,1.3-6.7,0-9.5.4-.4.9-.3,1.5-.3,8.6.4,17.3.3,25.9,0Z"/>
  <path class="st30" d="M828.6,519.2l.9,110.6c1.4.8,1.6,3.5,2.2,4.2-16.7-1.8-34.1,5.5-34-7l.6-109.3c18.4-1,12.3.1,30.3,1.5Z"/>
  <path class="st35" d="M824.9,453l53,.5c1.1,1.5-.3,2.4-3.4,2.8,2.3,12.6,0,20.1,3,36.9l-79.3.2c-10.1,0-15.1-16.3-14.7-23.7.4-7,.2-11.1,4.8-14,4.5-2.8,8.8-2.8,13.8-1.7,7.5,1.8,15.5-1.1,22.9-1Z"/>
  <path class="st32" d="M877.5,493.3l44.1.5c2.3,4.9,2.2,9.8,2.2,15-3.4-.7-3.8,5.1-4.7.7s1.7-2.8,2.3-5c-7.6,1.2-14.7-1.7-22,.5,9.1-2.8-17.7,8.8-17.3,7.1-.3,1.5-2.2,3.2-1,4.7-8.3-2.3-16.9-1.4-25.4-1.5l-22-.2c-2.1,0-3.7,0-4.5,1.2s-1.1,1.6-.8,2.8c-18.1-1.3-11.9-2.5-30.3-1.5,0-7.9-2.7-16.4,0-24.2l79.3-.2Z"/>
  <path class="st22" d="M899.7,405.1c0,.8,1.2,1.7,1.9,2.2l-2,11.6c-7.7-.5-15.2-.5-24.1,0,.4,10.2-.9,19.2.7,29.4,8.3,2.8,16.3.8,23.7.4s3.2.3,5.1.7,2.4,2.6,1.4,4c-9.4-.5-18.9.2-28.5,0l-53-.5.6-31.9c8.2.4-1.2,23.4,4.1,27.8s17.7-4,21.2.6,3.9-1.9,5.6-1.7c5.5.5,11.6,3.3,16.9.7l-.2-29.3-17.6-.9-30.2.5c.6-3.4-1.5-10.1,1.4-13.2l72.9-.4Z"/>
  <path class="st11" d="M825.5,421.2c-1.3,0-.2-1.7-.1-2.4l30.2-.5,17.6.9.2,29.3c-5.3,2.7-11.4-.2-16.9-.7s-3.9,3.9-5.6,1.7c-3.6-4.5-15,4.7-21.2-.6s4.1-27.4-4.1-27.8Z"/>
  <path class="st17" d="M1172.7,420.9c.7,10.1,1.1,20.2,1.1,30.4-8.3,1.4-17,4-26.1,3.2s-7.5-.8-11.1-.8h-42c-.6-.2-.5-1.3.3-2.2l51.9.7.7-32.4c8.9-1.7,17.5-.9,25.2,1.1Z"/>
  <path class="st8" d="M1145.3,558.6c10.6,11.1,20.7,35.5,43.5,38.4-.4,1.7-.6,2.4-1.5,3.1s-3.1.5-5.2.6c-3.8.2-5,4.2-3.8,6.4-4.3-3.1-9.6-4.7-16.4-7.2-1.9,10-.6,19.1-1,29,4.8,2.1,9.1-1.5,12.9,1.4-4,4.4-9.8-1.5-11.4,3.7l-63.7-.3-.3-66.5c-32.8,2.7-21.5-2-23.7-3.9,2.4-1.1,5.7,1,9.1.7l61.3-5.5Z"/>
  <path class="st20" d="M838.5.2c-.7,7.5.1,15,2,23l58.9-1.6.3,383.4-72.9.4-2.1-372.5c0-11.4-2-20.9.4-31.1,1.8-3.9,10.1-1.7,13.5-1.7Z"/>
  <path class="st54" d="M1173.5,22l-.5,383.5c-8.6.4-17.3.5-25.9,0,0-1-1-1.5-2-3.5l-.2-376.1c1.5-2.1,2.2-2.9,2.4-4.1h26.3Z"/>
  <path class="st25" d="M1173.5,22h-26.3c-16.8,0-33.8-.4-50.6-.6l-45.6-.6h-61.7c-21.2-.1-42.5-1-63.6,1.4-8.3.9-17.8-.6-26.4-.4l-58.9,1.6c-1.9-8-2.7-15.6-2-23l63.2-.9L1172.8-.1c1.5,8.7.6,15.4.6,22.1Z"/>
  <path class="st54" d="M925.8,22.1l.2,383.7c-8.1,0-16.9-1.8-24.4,1.6-.7-.4-1.9-1.3-1.9-2.2l-.3-383.4c8.6-.2,18.1,1.3,26.4.4Z"/>
  <path class="st20" d="M1147.2,21.9c-.1,1.1-.9,2-2.4,4.1l.2,376.1c1,2,2,2.5,2,3.5-.6,0-1.1-.1-1.5.3l-83.8-.2c-4.9-5.3,33.4.1,35.4-3.6l-.6-380.7c16.8.2,33.8.6,50.6.6Z"/>
  <path class="st25" d="M989.3,20.6l1.4,90.3c.4,24.6-1.3,43.7.8,70.5-3.9,10.6-.2,20.6-.7,30.9-1.8,36-.7,70.7-.6,106,.2,28-1.5,55.5,1.3,82.8-6.1.9-13.5,4.3-21.7,1.6-.7,1.8-.8,2.8-.3,2.9l-43.5.2-.2-383.7c21.1-2.4,42.3-1.5,63.6-1.5Z"/>
  <path class="st25" d="M1051,20.7l.7,359.7c0,6.7,6,13.7.5,20.6-5,.4-10.8,1.3-17.7.5l-2.2-31.2c-2.8,9.8,0,20.2-1.5,30.6l-16.8.4c-9,.2-14.9-1.2-22.5,0-2.8-27.3-1.1-54.8-1.3-82.8-.1-35.3-1.2-70,.6-106,.5-10.3-3.1-20.3.7-30.9-2.1-26.9-.4-45.9-.8-70.5l-1.4-90.3h61.7Z"/>
  <path class="st54" d="M1096.6,21.3l.6,380.7c-2,3.7-40.4-1.7-35.4,3.6h-92.2c-.5-.2-.4-1.2.3-3,8.1,2.8,15.5-.6,21.7-1.6s13.5.2,22.5,0l16.8-.4c1.5-10.3-1.3-20.8,1.5-30.6l2.2,31.2c6.9.8,12.7,0,17.7-.5,5.4-6.8-.5-13.9-.5-20.6l-.7-359.7,45.6.6Z"/>
  <path class="st50" d="M906.4,453.5c6.5.4,13.4,1,19.4-1.9,18.2,3.9,37.8,2.1,56.8,2.1-.5.2-.4,1.3.3,2.2h61.9c.7,8.2.2,17,2.6,24.8,18.9,1.8,35.6-.4,51.8-.2,15.5.2,30.9,2.1,46.4,0,9.5-1.3,20.5,5.2,29.9-.6-3.4,6.6-11.6,9.5-15.1,15.8-.9.3-1.6-2.2-2.8-2.2l-236.1.5-44.1-.5c-3-16.9-.6-24.4-3-36.9,3.1-.5,4.4-1.3,3.4-2.8,9.6,0,19.1-.6,28.5,0Z"/>
  <path class="st27" d="M969.5,405.6h92.2c0,0,83.8.3,83.8.3,1.2,2.8,1.7,6.7,0,9.5-1.5,2.5-6.4,2.9-9.6,2.9l-100.5.3c-15.1,0-30.4-1.8-45.6.2-10.9,1.4-22.5-2.7-33.6,0,3.5-.8-30.7,0-30.3-1.9.3-3.6,0-7.4,0-11.1l43.5-.2Z"/>
  <path class="st5" d="M1094.5,453.8h42c6.6,8.8-29.6,2.2-36.2,3-.9,8.9.8,16.2-1,23.6-16.2-.2-32.9,2-51.8.2-2.4-7.7-1.9-16.6-2.6-24.6h-61.9c-.8-1-.8-2.1-.3-2.4h111.8Z"/>
  <path class="st13" d="M1035.4,418.6c-2.9,9.7-.4,19.3-1.4,30.8-15.8-1-30.9,2.3-44.1-2.4v-28.2c15.1-2,30.5-.1,45.6-.2Z"/>
  <path class="st45" d="M926,405.7c0,3.6.3,7.5,0,11.1-1,10.8-1.3,21.7-.2,32.6s.2,1.5.1,2.2c-6.1,2.9-12.9,2.3-19.4,1.9,1-1.5-.1-3.8-1.4-4s-3.6-.7-5.1-.7c1-9.9,2.9-20.3-.3-29.9l2-11.6c7.5-3.3,16.3-1.5,24.4-1.6Z"/>
  <path class="st40" d="M989.8,418.8v28.2c-8.4,5.2-20.1,1.4-31.1,2.4-2-1-2.1-3.6-3.5-2.4l1.1-28.3c11-2.7,22.6,1.5,33.6,0Z"/>
  <path class="st52" d="M956.3,418.7l-1.1,28.3c-8.7,6.1-19.7.7-29.5,2.4-1.1-10.8-.8-21.8.2-32.6-.4,2,33.8,1.1,30.3,1.9Z"/>
  <path class="st38" d="M855.9,515.4c-1.8,3.1-1.5,6.4-1.6,10.8l-1,107.4c-7.1-.3-14.4,1.2-21.5.4-.6-.7-.8-3.4-2.2-4.2l-.9-110.6c-.3-1.2.3-2.1.8-2.8.8-1.2,2.4-1.2,4.5-1.2l22,.2Z"/>
  <path class="st14" d="M923.9,508.8l-.3,124.6c-2.1,0-4.3.5-6.3.4l-19.6-.9-1.1-18.8c-.4-7.6-3.2-12.5-2.5-20,3.1-31.5-2.1-42.3,2.9-73.4-5.1-1.5-10.4-.7-15.1-1.4,0-.8-.2-1.7-.7-2.4-1.2-1.5.7-3.2,1-4.7-.3,1.7,26.4-9.8,17.3-7.1,7.3-2.2,14.4.7,22-.5-.7,2.2-2.8,2.4-2.3,5,.8,4.4,1.3-1.4,4.7-.7Z"/>
  <path class="st30" d="M881.3,516.9c.4.7.7,1.5.7,2.4-.9,38-2.2,76.3.1,114.2-9.6.3-19.1.5-28.8.1l1-107.4c0-4.4-.2-7.8,1.6-10.8,8.5,0,17.1-.8,25.4,1.5Z"/>
  <path class="st36" d="M897.7,632.9c-5.3-.2-10.3.4-15.6.6-2.3-37.9-1-76.2-.1-114.2,4.7.8,10,0,15.1,1.4-4.9,31.1.3,41.9-2.9,73.4-.7,7.5,2.1,12.4,2.5,20l1.1,18.8Z"/>
  <path class="st29" d="M1160.6,495.6l-15.3,28.4c-8,0-16,1.5-24,2,.9-1.3-.5-2.1-2.3-2.1h-21.3c-.7-5.1.2-9.3-1.4-14.5l-45.4-1.4c-3.8-.1-6.3,1.5-8.8,2.7-8.2-4.8-18.4-.6-28.3-.8s-19.9-2-30.6-.4-19.3,1-28.2-.2-3.4,3.1-6.1,3.6-5.1-3.3-7.4-3.3c-6.8,0-12.3.5-17.7-.5,0-5.2,0-10.1-2.2-15l236.1-.5c1.3,0,1.9,2.5,2.8,2.2Z"/>
  <path class="st39" d="M899.6,418.9c3.2,9.6,1.2,20,.3,29.9-7.4.3-15.4,2.3-23.7-.4-1.6-10.1-.3-19.2-.7-29.4,9-.6,16.4-.5,24.1,0Z"/>
  <path class="st51" d="M1121.3,526c-7.9.5-15.4,1.8-23.6,3.2-1-3.7-2.6-3.6-3.6-.6-7.4,1.8-17.6,2.3-23.5,9-7.1,8.1-2.5,20,4.3,25.8,2.2,1.9-9.2,6.6,23.7,3.9l.3,66.5-8.6.2h-44.1c0,0-6.1-.5-6.1-.5-.8-1.2,2-2.4,2-4.3v-118.5c2.5-1.2,5.1-2.8,8.8-2.7l45.4,1.4c1.6,5.2.7,9.3,1.4,14.4h21.3c1.7,0,3.2.9,2.3,2.2Z"/>
  <path class="st48" d="M955.1,509.1c-1.4,4,1,8.1,1,12.4l.8,112.3c-11.1,0-22.2,0-33.3-.5l.3-124.6c5.4,1.1,10.9.5,17.7.5s4.4,3.8,7.4,3.3,2.3-4.1,6.1-3.6Z"/>
  <path class="st24" d="M1042.2,510.6v118.5c0,2-2.9,3.1-2.1,4.3l-83.2.4-.8-112.3c0-4.4-2.5-8.4-1-12.4,8.8,1.2,19,1.6,28.2.2s20.5.2,30.6.4,20-4,28.3.8Z"/>
  <path class="st26" d="M1619.4,929.8c-11.8-30.5-55.1-63.9-96.9-65.2-49.3-1.4-92.3,28.3-111.6,74.1-18.4-90.7-78.6-213.3-150.2-275.5-41.5-36.1-38.8-30.1-94.8-28,2.2-2.8-1.9-1.8-3.4-1.3,1.6-5.2,7.4.7,11.4-3.7-3.8-2.8-8.1.7-12.9-1.4.4-9.8-.9-19,1-29,6.8,2.5,12.1,4,16.4,7.2,2.4,1.8,5.4,4,9.1,3.2,9.1-2,17.7,1.5,26.7-1.6,7.3-2.5,15.8,0,22.3-5.1,85.6,52,143.5,146.9,180.2,236.7,2.8,6.9,4.1,13.7,10,19.2l107-41.7c4-1.6,6.5-2.4,6.5-6.4,0-3.4-1.5-6.3-3.7-8,.5-3,2-5.9,1.6-7.3,1.1.3,2.5,0,2.6-1.2l.3-3.7c7.3-100.2-131.9-293.4-256.3-330.3-4.3,0-9.7.5-9.8-3.4,84.1,11.4,158.8,76.5,208.8,145.1,68.1,93.4,115,215.8,135.9,327.1Z"/>
  <path class="st41" d="M1274.7,457.6c0,4,5.6,3.5,9.8,3.4,124.4,36.8,263.6,230.1,256.3,330.3l-.3,3.7c0,1.2-1.6,1.5-2.6,1.2-12.4-40.5-28-79.5-47.9-118.5-47-91.9-124.4-161.9-220.3-198.8-9.2-3.5-47.8-15.3-53.4-10.7-3.8-2.5-.4-7.9,2.9-10.4s-.3-4.4.4-5.4,1.1.4,1.9-1.3c18.3-1.8,35.7,4.2,53.1,6.6Z"/>
  <path class="st49" d="M1221.6,451c-.8,1.8-1.4.6-1.9,1.3s.5,4.8-.4,5.4c-3.3,2.5-6.7,8-2.9,10.4,3.8,2.5,6.6,5.1,9.6,7.9l-5.9,1.4c3-3.6.7-4.9-2.2-2.6-13.5.2-26-1.9-37.1,2.6-1.1.4-2.4-1.1-3.2-.9-1.2.2-1.4,2.4-1.8,3.1-9.4,5.9-20.4-.6-29.9.6l1.9-25.9c9.1.7,17.8-1.8,26.1-3.2,15.7-2.6,32.2,1.2,47.8-.3Z"/>
  <path class="st55" d="M1537.9,796.2c.4,1.4-1,4.3-1.6,7.3,2.2,1.7,3.6,4.6,3.7,8,0,3.9-2.5,4.8-6.5,6.4l-107,41.7c-5.8-5.5-7.2-12.3-10-19.2-36.6-89.8-94.5-184.7-180.2-236.7-6.5,5-15,2.6-22.3,5.1-9,3.1-17.6-.4-26.7,1.6-3.7.8-6.6-1.4-9.1-3.2-1.2-2.2,0-6.2,3.8-6.4s4,.3,5.2-.6,1.1-1.5,1.5-3.1c3.1.4,6,0,9.1-.4,9.1-1.4,16.1-6.3,24.1-12.9,6.9-5.7,18.5-6.1,24.7-12.9,8.9-9.7,9.7-26,7.6-38s-1.8-13.3-4.7-19c-2.5-4.8-1.4-9.4-2.5-13.7-3.1-11.7-13.9-17.3-21-24.1-3-2.8-5.8-5.4-9.6-7.9,5.5-4.6,44.2,7.2,53.4,10.7,95.9,36.9,173.3,106.9,220.3,198.8,19.9,39,35.5,77.9,47.9,118.5Z"/>
  <path class="st18" d="M1147.6,454.5l-1.9,25.9c-15.5,2.1-30.9.2-46.4,0,1.8-7.4,0-14.7,1-23.6,6.5-.8,42.8,5.8,36.2-3,3.7,0,7.5.5,11.1.8Z"/>
  <path class="st4" d="M1226,476.1c7.2,6.8,18,12.4,21,24.1,1.1,4.2,0,8.9,2.5,13.7,3,5.7,3.7,13,4.7,19-2.2-.3-1.7,1.9-1.3,5.1-9.9-1.4-17.3,6.7-26.2,1.8.4-3.2-1-6.2-1.3-9.2-1.7-18-15.7-30-34.2-34.4-14.3-3.4-6.6-14.6-10.6-18.4,11.1-4.6,23.7-2.4,37.1-2.6,2.9-2.3,5.2-1,2.2,2.6l5.9-1.4Z"/>
  <path class="st23" d="M1180.7,477.6c3.9,3.9-3.7,15,10.6,18.4,18.5,4.4,32.5,16.5,34.2,34.4-4.6-1.5-3-7.5-9.1-11.3-10.3,20.4,2.6,11.2-7.1,30.8-1.8,3.6-1.1,7.8-5.8,11.2-2.1,1.5-4.3,3.8-8,.5-12.4-2.6,11.6-6.9,9.4-25.3-2-16.8-21-15.3-14.2-23.8-21.6,9.8-12,.6-26,12.8-4.2-1.3-5.4,7.4-9,3.1-.6-3.4,2.2-7.3,7.2-7.8-2.7-.2-4.1-4.8-6.3-5.4-5.5,1.7-6.3,9.1-11.2,8.6l15.3-28.4c3.4-6.3,11.7-9.3,15.1-15.8.4-.8.5-2.9,1.8-3.1s2.2,1.4,3.2.9Z"/>
  <path class="st3" d="M1197.9,596.6c1.9-4.8,4.6-9.4,10.6-11.9-1.7-4.6-6.2-2.2-8.1-5.3,15.7-6.8,24.2-23.4,26.3-39.7,8.9,4.9,16.3-3.2,26.2-1.8-.4-3.2-.9-5.3,1.3-5.1,2.1,12,1.3,28.3-7.6,38-6.1,6.7-17.8,7.1-24.7,12.9-8,6.6-15,11.5-24.1,12.9Z"/>
  <path class="st4" d="M1164.7,525.5c-2.3,6.5-5.9,12-3,19.3,2.3,5.7,7.4,9.9,12.1,14.5-1.4,4.7-6.2,4.1-13.2,4.5.6,5.6-.2,9.9.9,12.3,13.4,4.3,26.9,8.5,38.9,3.3,1.9,3.1,6.3.7,8.1,5.3-6,2.6-8.7,7.2-10.6,11.9-3.1.5-6,.8-9.1.4-22.8-2.8-33-27.2-43.5-38.4,3-8.2-11.7-6.5-2.2-28.5l3.6,9.6,1.8-8.5c.4-1.7,4.6-2.5,7.2-2.5,3.6,4.3,4.8-4.5,9-3.1Z"/>
  <path class="st12" d="M1155.7,528.6c-2.5,0-6.8.8-7.2,2.5l-1.8,8.5-3.6-9.6c-9.5,22,5.2,20.3,2.2,28.5l-61.3,5.5c-3.5.3-6.7-1.8-9.1-.7-6.8-5.8-11.4-17.7-4.3-25.8,5.9-6.7,16.1-7.2,23.5-9,1.1-3,2.6-3,3.6.6,8.1-1.3,15.7-2.7,23.6-3.2,8-.5,16-1.9,24-2,4.9.5,5.7-6.8,11.2-8.6,2.2.6,3.7,5.2,6.3,5.4-5,.5-7.8,4.4-7.2,7.8Z"/>
  <path class="st46" d="M1225.5,530.5c.3,3,1.7,6.1,1.3,9.2-2.1,16.3-10.6,32.9-26.3,39.7s-25.4,1-38.9-3.3c-1.1-2.4-.3-6.8-.9-12.3,6.9-.3,11.8.2,13.2-4.5,22-3.1,12.1,4.3,16.4,4.1s5.7,1.4,5.3-1.6c3.7,3.3,5.9,1,8-.5,4.7-3.4,4-7.6,5.8-11.2,9.7-19.7-3.2-10.4,7.1-30.8,6.1,3.7,4.5,9.8,9.1,11.3Z"/>
  <path class="st57" d="M1195.5,561.8c.4,3-3.4,1.6-5.3,1.6-4.3.2,5.6-7.2-16.4-4.1-4.7-4.6-9.9-8.8-12.1-14.5-2.9-7.2.7-12.8,3-19.3,13.9-12.2,4.4-3,26-12.8-6.8,8.5,12.2,7,14.2,23.8,2.2,18.4-21.8,22.6-9.4,25.3Z"/>
  <path class="st43" d="M1619.4,929.8c19.5,50.4-4.2,82.5-2.8,132.1-4.7,26.7-1.6,54.3-.8,83,.7,28.1-18.5,52.7-45.8,58-24.1,4.7-53.1-8.2-62.5-34.2-7.6-21.2-19.9-39-27.9-57.5-29.8-69.2-53.9-69.4-64.9-104.5-2.2-7.8,15.5-6.8,17-13.3,5.1,12.1,12.9,21,22.4,29.1,42.7,36.5,60.8,78.1,84.3,126.8,5.1,10.6,15.9,16,27,14.8,8.8-.9,19.7-8.2,20-19.2l1.3-61.5c.7-31.1,4.4-60.6,11.6-90.3,12.7-52.5-28.1-105.2-79.4-112.8-1.3-3.1-1.3-10.2.9-11.7,4.1-.3,3.5-1.5,2.9-3.9,41.8,1.2,85.1,34.6,96.9,65.2Z"/>
  <path class="st15" d="M1522.5,864.6c.6,2.4,1.2,3.6-2.9,3.9-2.2,1.5-2.2,8.6-.9,11.7,51.2,7.7,92.1,60.4,79.4,112.8-7.2,29.7-10.9,59.2-11.6,90.3l-1.3,61.5c-.2,11-11.2,18.2-20,19.2-11.1,1.2-21.8-4.2-27-14.8-23.5-48.7-41.6-90.3-84.3-126.8-9.5-8.1-17.3-16.9-22.4-29.1-1.4,6.5-19.1,5.6-17,13.3-6-19.3-12.4-47.5-3.8-68,19.3-45.9,62.3-75.6,111.6-74.1Z"/>
  <path class="st37" d="M1533.4,990c-13.4,9.5-31,4.5-37.4-9.8-5.3-11.9,1.6-24.6,10.5-29.7,11.1-6.4,24.8-2.2,31.2,7.2,6.8,10,7.2,24.1-4.3,32.3Z"/>
  <path class="st28" d="M1521.2,980c-7.5,3.4-13.1-.6-16.1-5.1-3.2-5,.4-11.3,5.7-15,5.6-3.9,13.1-2.2,16.8,2.7,3.9,5.2,1.6,13.7-6.5,17.5Z"/>
</svg>